<svg xmlns="http://www.w3.org/2000/svg" viewBox="0 0 134.67 59.92"><defs><style>.cls-1{fill:#fff;}.cls-2{fill:#27bdbe;}.cls-3{fill:#434143;}</style></defs><title>Asset 5</title><g id="Layer_2" data-name="Layer 2"><g id="Layer_1-2" data-name="Layer 1"><rect class="cls-1" width="134.67" height="59.92"/><path class="cls-2" d="M47.81,31A3.34,3.34,0,0,0,45.37,32l-1.81-.81a.17.17,0,0,0-.23.12,4.65,4.65,0,0,1-.49,1.25.17.17,0,0,0,.08.24l1.63.72A3.36,3.36,0,1,0,47.81,31Zm0,5a1.63,1.63,0,1,1,1.63-1.62A1.63,1.63,0,0,1,47.81,36Z"/><path class="cls-2" d="M40.42,37.27,40.09,35a.16.16,0,0,0-.2-.14l-.21.05a4.82,4.82,0,0,1-1.13.08.18.18,0,0,0-.18.19l.34,2.44a2.8,2.8,0,1,0,1.71-.32ZM40,41.16a1.09,1.09,0,1,1,1.09-1.09A1.09,1.09,0,0,1,40,41.16Z"/><path class="cls-2" d="M36.94,24.5l.17,1.21a.18.18,0,0,0,.23.14,3.18,3.18,0,0,1,.53-.14,4.35,4.35,0,0,1,.79-.09.16.16,0,0,0,.16-.19l-.17-1.23a3.73,3.73,0,1,0-1.71.3Zm.23-5.73a2,2,0,1,1-2,2A2,2,0,0,1,37.17,18.77Z"/><path class="cls-2" d="M29.42,28.25a2.41,2.41,0,0,0,1.6-.61l3,1.55a.17.17,0,0,0,.24-.11,4.32,4.32,0,0,1,.53-1.23.18.18,0,0,0-.06-.24L31.82,26.1a2.17,2.17,0,0,0,0-.26,2.42,2.42,0,1,0-2.41,2.41Zm0-3.1a.69.69,0,0,1,.68.69.69.69,0,0,1-1.37,0A.69.69,0,0,1,29.42,25.15Z"/><path class="cls-2" d="M43.13,28.6a.17.17,0,0,0,.25.09l2-1.34a2.6,2.6,0,1,0-1-2,2.35,2.35,0,0,0,.06.54l-2,1.32a.17.17,0,0,0,0,.24A4.64,4.64,0,0,1,43.13,28.6Zm3.92-4.14a.87.87,0,1,1,0,1.74.87.87,0,0,1,0-1.74Z"/><path class="cls-2" d="M34.43,32a.16.16,0,0,0-.23-.09l-1.11.56A3.85,3.85,0,1,0,34,34l1.09-.55a.17.17,0,0,0,.05-.26A4.94,4.94,0,0,1,34.43,32Zm-4.17,5.23a2.14,2.14,0,1,1,2.13-2.13A2.14,2.14,0,0,1,30.26,37.25Z"/><path class="cls-2" d="M39.22,33.6a3.07,3.07,0,0,0,.67-.14,3.3,3.3,0,0,0,1.69-1.23,3.24,3.24,0,0,0,.61-1.62.13.13,0,0,0,0-.06.09.09,0,0,0-.1-.09l-.17,0h0l-1.14.23a.07.07,0,0,0-.07.06,1.87,1.87,0,0,1-.3.62h0a1.86,1.86,0,0,1-1.18.75A1.91,1.91,0,0,1,37,30.43a1.92,1.92,0,0,1,3.13-1.64,1.83,1.83,0,0,1,.3.32.1.1,0,0,0,.09,0l1.32-.26a.09.09,0,0,0,.06-.12A3.07,3.07,0,0,0,41.3,28,3.31,3.31,0,0,0,39,26.93a3.78,3.78,0,0,0-.82.06,3.27,3.27,0,0,0-.88.3,3.32,3.32,0,0,0-1.21,1.05,3.4,3.4,0,0,0-.6,1.64,3.36,3.36,0,0,0,.1,1.17.09.09,0,0,1,0,.05,3.41,3.41,0,0,0,.9,1.48,3.33,3.33,0,0,0,1.61.86A3.17,3.17,0,0,0,39.22,33.6Z"/><path class="cls-3" d="M63.79,34.13A5.55,5.55,0,0,1,58,28.33a5.55,5.55,0,0,1,5.81-5.8,5.18,5.18,0,0,1,4.64,2.61l2.31-1.34a8,8,0,0,0-6.95-3.86,8.16,8.16,0,0,0-6.06,2.43,8.07,8.07,0,0,0-2.41,6,8.47,8.47,0,0,0,12.53,7.35,7.52,7.52,0,0,0,2.89-2.84l-2.31-1.32A5.15,5.15,0,0,1,63.79,34.13Z"/><path class="cls-3" d="M80.15,25.06l-2.64,7.46a.29.29,0,0,1-.55,0l-3.07-7.49a.3.3,0,0,0-.27-.19H71.53a.3.3,0,0,0-.27.42L76,36.21l-.12.23c-.63,1.6-1.5,2.36-3.07,2.27h0v2a.3.3,0,0,0,.28.3c2.51,0,4.28-1.4,5.35-4.27l4.29-11.53a.29.29,0,0,0-.27-.4h-2A.29.29,0,0,0,80.15,25.06Z"/><path class="cls-3" d="M90.06,24.56a4,4,0,0,0-3.58,1.79h0V25.16a.31.31,0,0,0-.3-.3h-1.9a.3.3,0,0,0-.3.3v11a.29.29,0,0,0,.3.29h1.9a.3.3,0,0,0,.3-.29v-5.9c0-2.25,1.17-3.33,2.93-3.33A2.41,2.41,0,0,1,92,29.58v6.55a.29.29,0,0,0,.29.29h1.85a.36.36,0,0,0,.36-.36V29.33C94.5,26.37,92.72,24.56,90.06,24.56Z"/><path class="cls-2" d="M86.59,40.59a1.79,1.79,0,0,0-.32-.17L86,40.3l-.36-.13c-.66-.2-.87-.35-.87-.67S85,39,85.4,39a.94.94,0,0,1,.91.61h0l.6-.35a1.61,1.61,0,0,0-1.51-.95,1.46,1.46,0,0,0-1,.34,1.12,1.12,0,0,0-.41.91,1,1,0,0,0,.42.87,3.2,3.2,0,0,0,.91.4,3.83,3.83,0,0,1,.77.3.47.47,0,0,1,.21.41c0,.34-.26.56-.8.56a1,1,0,0,1-1.08-.72l-.61.35a1.65,1.65,0,0,0,1.67,1.07,1.75,1.75,0,0,0,1.11-.34,1.16,1.16,0,0,0,.42-.94A1,1,0,0,0,86.59,40.59Z"/><path class="cls-2" d="M90.1,40a1.56,1.56,0,0,0-1.16-.47,1.62,1.62,0,0,0-1.63,1.62,1.62,1.62,0,0,0,1.63,1.63,1.61,1.61,0,0,0,1.63-1.63A1.56,1.56,0,0,0,90.1,40Zm-.47,1.85a1,1,0,0,1-1.38,0,1,1,0,1,1,1.38,0Z"/><path class="cls-2" d="M92.56,38.91v-.56a.08.08,0,0,0-.08-.08,1.14,1.14,0,0,0-1.32,1.26v.06h-.47v.64h.47v2.45h.67V40.23h.73v-.64h-.73v-.06c0-.46.24-.66.73-.62Z"/><path class="cls-2" d="M98.54,39.64,98,41.46a.08.08,0,0,1-.16,0l-.54-1.82a.08.08,0,0,0-.08,0h-.52a.08.08,0,0,0-.07,0l-.56,1.82a.08.08,0,0,1-.15,0l-.51-1.82a.08.08,0,0,0-.07,0h-.54a.08.08,0,0,0-.08.1l.92,2.93a.09.09,0,0,0,.08.06h.54a.09.09,0,0,0,.07-.06l.56-1.78a.08.08,0,0,1,.15,0l.55,1.78a.09.09,0,0,0,.08.06h.53a.09.09,0,0,0,.08-.06l.92-2.93a.08.08,0,0,0-.08-.1h-.53A.08.08,0,0,0,98.54,39.64Z"/><path class="cls-2" d="M102,39.67v.14a.08.08,0,0,1-.13.06,1.27,1.27,0,0,0-.95-.36,1.42,1.42,0,0,0-1.08.47,1.54,1.54,0,0,0-.45,1.15,1.6,1.6,0,0,0,.45,1.16,1.45,1.45,0,0,0,1.08.47,1.25,1.25,0,0,0,1.08-.53h0v.37a.09.09,0,0,0,.08.08h.51a.08.08,0,0,0,.08-.08V39.67a.07.07,0,0,0-.08-.08H102A.08.08,0,0,0,102,39.67Zm-.27,2.17a1,1,0,0,1-1.4,0,1,1,0,0,1-.28-.71,1,1,0,0,1,.28-.7,1,1,0,0,1,1.67.7A1,1,0,0,1,101.68,41.84Z"/><path class="cls-2" d="M103.94,39.82v-.15a.07.07,0,0,0-.08-.08h-.51a.07.07,0,0,0-.07.08V42.6a.08.08,0,0,0,.07.08h.51a.08.08,0,0,0,.08-.08V41.12a.76.76,0,0,1,.29-.68.92.92,0,0,1,.58-.19.07.07,0,0,0,.08-.08v-.56a.08.08,0,0,0-.08-.08,1,1,0,0,0-.73.34A.08.08,0,0,1,103.94,39.82Z"/><path class="cls-2" d="M108.27,41.14a1.68,1.68,0,0,0-.44-1.16,1.46,1.46,0,0,0-1.11-.47,1.54,1.54,0,0,0-1.17.47,1.59,1.59,0,0,0-.46,1.15,1.62,1.62,0,0,0,.46,1.17,1.69,1.69,0,0,0,1.22.46,1.5,1.5,0,0,0,1.3-.61.07.07,0,0,0,0-.11l-.48-.28h0a.89.89,0,0,1-.79.38.92.92,0,0,1-1-.62.07.07,0,0,1,.07-.1h2.29a.08.08,0,0,0,.08-.07A1.79,1.79,0,0,0,108.27,41.14Zm-2.39-.27a.07.07,0,0,1-.07-.1.89.89,0,0,1,.91-.66.86.86,0,0,1,.86.66.08.08,0,0,1-.08.1Z"/><path class="cls-2" d="M93.66,40.23h.69a.09.09,0,0,0,.08-.08v-.48a.08.08,0,0,0-.08-.08h-.61a.09.09,0,0,1-.08-.08V39a.08.08,0,0,0-.08-.08h-.51A.09.09,0,0,0,93,39v.51a.08.08,0,0,1-.08.08H92.5a.08.08,0,0,0-.08.08v.48a.09.09,0,0,0,.08.08H93v1.69a.76.76,0,0,0,.75.76h.61a.09.09,0,0,0,.08-.08v-.51a.08.08,0,0,0-.08-.08h-.61a.09.09,0,0,1-.08-.08v-1.7Z"/><path class="cls-3" d="M106.49,26.32a6.1,6.1,0,0,0-10.42,4.32A5.89,5.89,0,0,0,97.85,35a5.82,5.82,0,0,0,3.07,1.64V34.08a3.43,3.43,0,0,1-1.32-.83,3.8,3.8,0,0,1,0-5.22,3.66,3.66,0,0,1,5.13,5.22,3.32,3.32,0,0,1-1.31.83v2.53A5.82,5.82,0,0,0,106.49,35a6.14,6.14,0,0,0,0-8.65Z"/><circle class="cls-2" cx="63.69" cy="28.17" r="2.44"/></g></g></svg>